<?xml version="1.0" encoding="iso-8859-1"?>
<!-- Generator: Adobe Illustrator 19.0.0, SVG Export Plug-In . SVG Version: 6.00 Build 0)  -->
<svg version="1.1" id="Layer_1" xmlns="http://www.w3.org/2000/svg" xmlns:xlink="http://www.w3.org/1999/xlink" x="0px" y="0px"
	 viewBox="0 0 421.602 421.602" style="enable-background:new 0 0 421.602 421.602;" xml:space="preserve">
<g>
	<rect x="32.67" y="57.645" style="fill:#F9C032;" width="356.72" height="318.315"/>
	<g>
		<path style="fill:#E2B247;" d="M42.16,121.675c0,7.36-3.77,13.84-9.49,17.6v-17.6C32.67,121.675,42.16,121.675,42.16,121.675z"/>
		<path style="fill:#E2B247;" d="M63.232,142.758c11.65,0,21.085-9.436,21.085-21.086H42.159
			C42.159,133.322,51.595,142.758,63.232,142.758z"/>
		<path style="fill:#E2B247;" d="M105.404,142.758c11.637,0,21.073-9.436,21.073-21.086H84.318
			C84.318,133.322,93.754,142.758,105.404,142.758z"/>
		<path style="fill:#E2B247;" d="M147.562,142.758c11.637,0,21.073-9.436,21.073-21.086h-42.159
			C126.477,133.322,135.913,142.758,147.562,142.758z"/>
		<path style="fill:#E2B247;" d="M189.721,142.758c11.637,0,21.073-9.436,21.073-21.086h-42.159
			C168.636,133.322,178.072,142.758,189.721,142.758z"/>
		<path style="fill:#E2B247;" d="M231.88,142.758c11.637,0,21.085-9.436,21.085-21.086h-42.171
			C210.794,133.322,220.243,142.758,231.88,142.758z"/>
		<path style="fill:#E2B247;" d="M274.039,142.758c11.65,0,21.086-9.436,21.086-21.086h-42.159
			C252.966,133.322,262.402,142.758,274.039,142.758z"/>
		<path style="fill:#E2B247;" d="M316.198,142.758c11.65,0,21.085-9.436,21.085-21.086h-42.159
			C295.125,133.322,304.561,142.758,316.198,142.758z"/>
		<path style="fill:#E2B247;" d="M358.357,142.758c11.65,0,21.086-9.436,21.086-21.086h-42.159
			C337.284,133.322,346.72,142.758,358.357,142.758z"/>
		<path style="fill:#E2B247;" d="M389.39,121.675v17.9c-5.98-3.72-9.95-10.34-9.95-17.9
			C379.44,121.675,389.39,121.675,389.39,121.675z"/>
	</g>
	<rect x="32.67" y="82.699" style="fill:#E2B247;" width="356.72" height="38.976"/>
	<g>
		<path style="fill:#E877AA;" d="M42.159,110.339c0,11.65-9.436,21.086-21.086,21.086C9.436,131.424,0,121.988,0,110.339
			L17.304,95.07"/>
		<path style="fill:#D1D1D1;" d="M42.159,110.339c0,11.65,9.436,21.086,21.073,21.086c11.65,0,21.086-9.436,21.086-21.086"/>
		<path style="fill:#E877AA;" d="M126.477,110.339c0,11.65-9.436,21.086-21.073,21.086c-11.65,0-21.086-9.436-21.086-21.086"/>
		<path style="fill:#D1D1D1;" d="M168.636,110.339c0,11.65-9.436,21.086-21.073,21.086c-11.65,0-21.086-9.436-21.086-21.086"/>
		<path style="fill:#E877AA;" d="M210.795,110.339c0,11.65-9.436,21.086-21.073,21.086c-11.65,0-21.086-9.436-21.086-21.086"/>
		<path style="fill:#D1D1D1;" d="M252.966,110.339c0,11.65-9.448,21.086-21.086,21.086c-11.637,0-21.086-9.436-21.086-21.086"/>
		<path style="fill:#E877AA;" d="M295.125,110.339c0,11.65-9.436,21.086-21.086,21.086c-11.637,0-21.073-9.436-21.073-21.086"/>
		<path style="fill:#D1D1D1;" d="M337.284,110.339c0,11.65-9.436,21.086-21.086,21.086c-11.637,0-21.073-9.436-21.073-21.086"/>
		<path style="fill:#E877AA;" d="M379.443,110.339c0,11.65-9.436,21.086-21.086,21.086c-11.637,0-21.073-9.436-21.073-21.086"/>
		<path style="fill:#D1D1D1;" d="M379.443,110.339c0,11.65,9.436,21.086,21.086,21.086c11.637,0,21.073-9.436,21.073-21.086
			l-28.798-21.602"/>
	</g>
	<g>
		<polygon style="fill:#FC88B8;" points="68.292,45.642 32.666,45.642 0,110.339 42.159,110.339 		"/>
		<polygon style="fill:#E6E6E6;" points="103.918,45.642 68.292,45.642 42.159,110.339 84.318,110.339 		"/>
		<polygon style="fill:#FC88B8;" points="139.544,45.642 103.918,45.642 84.318,110.339 126.477,110.339 		"/>
		<polygon style="fill:#E6E6E6;" points="175.17,45.642 139.544,45.642 126.477,110.339 168.636,110.339 		"/>
		<polygon style="fill:#FC88B8;" points="210.796,45.642 175.17,45.642 168.636,110.339 210.795,110.339 		"/>
		<polygon style="fill:#E6E6E6;" points="246.421,45.642 210.796,45.642 210.795,110.339 252.954,110.339 		"/>
		<polygon style="fill:#FC88B8;" points="282.047,45.642 246.421,45.642 252.954,110.339 295.113,110.339 		"/>
		<polygon style="fill:#E6E6E6;" points="317.673,45.642 282.047,45.642 295.113,110.339 337.272,110.339 		"/>
		<polygon style="fill:#E6E6E6;" points="388.935,45.642 353.309,45.642 379.443,110.339 421.601,110.339 		"/>
		<polygon style="fill:#FC88B8;" points="353.309,45.642 317.683,45.642 337.284,110.339 379.443,110.339 		"/>
	</g>
	<rect x="47.367" y="162.339" style="fill:#3496F7;" width="207.333" height="179.333"/>
	<rect x="54.367" y="169.339" style="fill:#2D4151;" width="193.333" height="165.333"/>
	<rect x="275.367" y="148.017" style="fill:#2278B2;" width="101.994" height="227.943"/>
	<rect x="281.822" y="154.191" style="fill:#3496F7;" width="89.369" height="152.148"/>
	<rect x="286.91" y="160.501" style="fill:#2278B2;" width="79.188" height="139.527"/>
	<rect x="291.7" y="165.02" style="fill:#2D4151;" width="69.607" height="130.489"/>
	<rect x="281.433" y="311.699" style="fill:#3496F7;" width="89.368" height="58.072"/>
	<rect x="286.52" y="316.585" style="fill:#2278B2;" width="79.188" height="48.299"/>
	<rect x="292.52" y="322.585" style="fill:#3496F7;" width="67.188" height="36.299"/>
	<circle style="fill:#D8D4D5;" cx="326.082" cy="215.966" r="2.469"/>
	<g>
		<polygon style="fill:#C1B9BC;" points="338.033,225.322 326.122,216.304 314.76,225.101 314.424,224.667 326.12,215.613 
			338.365,224.884 		"/>
	</g>
	<path style="fill:#E877AA;" d="M343.245,232.863c0,2.201-1.8,4-4,4h-25.763c-2.2,0-4-1.799-4-4v-5.293c0-2.199,1.8-4,4-4h25.763
		c2.2,0,4,1.801,4,4V232.863z"/>
	<g>
		<path style="fill:#FAFCFC;" d="M318.309,225.96c0.601,0,1.112,0.213,1.533,0.636s0.631,0.933,0.631,1.529v4.935
			c0,0.602-0.212,1.112-0.635,1.533s-0.933,0.631-1.529,0.631c-0.601,0-1.111-0.211-1.529-0.635
			c-0.418-0.423-0.628-0.933-0.628-1.529v-4.935c0-0.601,0.212-1.112,0.635-1.533C317.208,226.171,317.716,225.96,318.309,225.96z
			 M319.051,228.097c0-0.217-0.076-0.4-0.227-0.553c-0.152-0.151-0.335-0.227-0.552-0.227c-0.216,0-0.401,0.075-0.555,0.227
			c-0.154,0.152-0.231,0.336-0.231,0.553v4.949c0,0.216,0.077,0.4,0.231,0.551c0.154,0.152,0.339,0.228,0.555,0.228
			c0.217,0,0.4-0.075,0.552-0.228c0.151-0.15,0.227-0.335,0.227-0.551V228.097z"/>
		<path style="fill:#FAFCFC;" d="M323.827,226.076c0.664,0,1.193,0.209,1.587,0.628c0.365,0.398,0.548,0.908,0.548,1.529v1.313
			c0,0.597-0.208,1.106-0.624,1.529c-0.416,0.424-0.92,0.635-1.512,0.635h-0.786v3.406h-1.364v-9.04L323.827,226.076
			L323.827,226.076z M324.642,228.255c0-0.236-0.071-0.426-0.213-0.57s-0.331-0.217-0.566-0.217h-0.822v2.894h0.822
			c0.217,0,0.4-0.077,0.552-0.231c0.151-0.153,0.227-0.338,0.227-0.555L324.642,228.255L324.642,228.255z"/>
		<path style="fill:#FAFCFC;" d="M327.051,235.117v-9.047h3.881v1.37h-2.518v2.468h1.84v1.371h-1.84v2.467h2.518v1.371H327.051z"/>
		<path style="fill:#FAFCFC;" d="M333.401,226.07l1.81,6.08v-6.08h1.364v9.047h-1.465l-1.875-5.793v5.793h-1.364v-9.047H333.401z"/>
	</g>
	<rect x="78.888" y="253.672" style="fill:#76DD91;" width="2" height="28.333"/>
	<rect x="96.297" y="253.672" style="fill:#76DD91;" width="2" height="28.333"/>
	<rect x="87.592" y="253.672" style="fill:#76DD91;" width="2" height="28.333"/>
	<path style="fill:#FFFFFF;" d="M88.593,325.914L88.593,325.914c-6.924,0-12.619-5.454-12.919-12.371l-1.64-37.777h29.118
		l-1.64,37.777C101.212,320.46,95.516,325.914,88.593,325.914z"/>
	<path style="fill:#E52C2C;" d="M79.888,256.005L79.888,256.005c-2.946,0-5.333-2.388-5.333-5.333v-7.333h10.667v7.333
		C85.221,253.618,82.834,256.005,79.888,256.005z"/>
	<path style="fill:#E52C2C;" d="M97.297,256.005L97.297,256.005c-2.946,0-5.333-2.388-5.333-5.333v-7.333h10.667v7.333
		C102.63,253.618,100.242,256.005,97.297,256.005z"/>
	<path style="fill:#F93030;" d="M88.63,254.684L88.63,254.684c-2.946,0-5.333-2.388-5.333-5.333v-7.333h10.667v7.333
		C93.964,252.296,91.576,254.684,88.63,254.684z"/>
	<path style="fill:#76DD91;" d="M97.7,268.354L97.7,268.354c4.873,0,8.823-3.95,8.823-8.823l0,0l0,0
		C101.65,259.531,97.7,263.481,97.7,268.354L97.7,268.354z"/>
	<path style="fill:#76DD91;" d="M80.085,268.354L80.085,268.354c-4.873,0-8.823-3.95-8.823-8.823l0,0l0,0
		C76.135,259.531,80.085,263.481,80.085,268.354L80.085,268.354z"/>
	<rect x="127.291" y="258.672" style="fill:#76DD91;" width="2" height="28.333"/>
	<rect x="144.7" y="258.672" style="fill:#76DD91;" width="2" height="28.333"/>
	<rect x="135.996" y="258.672" style="fill:#76DD91;" width="2" height="28.333"/>
	<path style="fill:#E2AA2D;" d="M128.291,261.005L128.291,261.005c-2.946,0-5.333-2.388-5.333-5.333v-7.333h10.667v7.333
		C133.624,258.618,131.237,261.005,128.291,261.005z"/>
	<path style="fill:#E2AA2D;" d="M145.7,261.005L145.7,261.005c-2.946,0-5.333-2.388-5.333-5.333v-7.333h10.667v7.333
		C151.033,258.618,148.646,261.005,145.7,261.005z"/>
	<path style="fill:#F9C032;" d="M137.033,259.684L137.033,259.684c-2.946,0-5.333-2.388-5.333-5.333v-7.333h10.667v7.333
		C142.367,257.296,139.979,259.684,137.033,259.684z"/>
	<path style="fill:#76DD91;" d="M146.103,273.354L146.103,273.354c4.873,0,8.823-3.95,8.823-8.823l0,0l0,0
		C150.053,264.531,146.103,268.481,146.103,273.354L146.103,273.354z"/>
	<path style="fill:#76DD91;" d="M128.488,273.354L128.488,273.354c-4.873,0-8.823-3.95-8.823-8.823l0,0l0,0
		C124.538,264.531,128.488,268.481,128.488,273.354L128.488,273.354z"/>
	<path style="fill:#FFFFFF;" d="M94.093,325.005h-11c-5.339,0-9.667,4.328-9.667,9.667l0,0h30.333l0,0
		C103.759,329.333,99.431,325.005,94.093,325.005z"/>
	<path style="fill:#FFFFFF;" d="M142.093,325.005h-11c-5.339,0-9.667,4.328-9.667,9.667l0,0h30.333l0,0
		C151.759,329.333,147.431,325.005,142.093,325.005z"/>
	<path style="fill:#FFFFFF;" d="M136.593,325.914L136.593,325.914c-6.924,0-12.619-5.454-12.919-12.371l-1.64-37.777h29.118
		l-1.64,37.777C149.212,320.46,143.516,325.914,136.593,325.914z"/>
	<g>
		<path style="fill:#47F470;" d="M182.033,310.773h-2c0-7.458-3.053-13.758-6.666-13.758v-2
			C178.226,295.015,182.033,301.937,182.033,310.773z"/>
		<path style="fill:#47F470;" d="M183.399,310.256c-0.102-0.392-2.406-9.677,4.983-16.01l1.301,1.519
			c-6.425,5.508-4.436,13.648-4.348,13.991L183.399,310.256z"/>
		<path style="fill:#47F470;" d="M188.368,311.386c-0.015-0.308-0.306-7.592,4.43-10.87l1.139,1.645
			c-3.834,2.654-3.573,9.066-3.57,9.13L188.368,311.386z"/>
		<path style="fill:#47F470;" d="M199.7,309.34c0-0.096-0.074-9.615-5.328-14.251l1.322-1.5c5.938,5.238,6.006,15.323,6.006,15.75
			L199.7,309.34z"/>
		<path style="fill:#47F470;" d="M203.033,311.703c-0.014-0.457-0.269-11.247,6.734-16.498l1.199,1.6
			c-6.163,4.623-5.938,14.735-5.934,14.836L203.033,311.703z"/>
		<path style="fill:#47F470;" d="M216.614,311.153l-1.162-1.627l0.581,0.814l-0.63-0.776c0.408-0.387,0.864-2.343-1.882-6.69
			l1.691-1.068C219.591,308.737,216.931,310.926,216.614,311.153z"/>
		<path style="fill:#47F470;" d="M220.056,311.219c-0.101-0.46-2.408-11.325,2.692-15.333l1.236,1.573
			c-3.425,2.69-2.587,10.537-1.976,13.333L220.056,311.219z"/>
		<path style="fill:#47F470;" d="M174.048,309.507c-0.007-0.036-0.671-3.626-4.235-6.003l1.109-1.664
			c4.311,2.874,5.067,7.154,5.098,7.334L174.048,309.507z"/>
		<path style="fill:#47F470;" d="M226.371,310.763c-0.029-0.326-0.671-8.021,4.188-10.638l0.949,1.761
			c-3.709,1.997-3.15,8.629-3.145,8.696L226.371,310.763z"/>
	</g>
	<polygon style="fill:#E877AA;" points="233.367,307.764 167.926,307.764 170.772,334.672 230.52,334.672 	"/>
	<path style="opacity:0.2;fill:#FCFAFA;enable-background:new    ;" d="M74.826,329.306h167.591v-95.871
		C242.415,233.435,215.503,317.562,74.826,329.306z"/>
	<g>
		<path style="fill:#FFFFFF;" d="M90.258,204.705c-0.071,0.396-0.071,0.72-0.071,1.26c0,1.944,0.863,2.844,3.203,3.276
			c-1.656,0.648-3.672,1.008-5.976,1.008c-2.52,0-3.887-0.612-3.887-1.692c0-0.144,0.035-0.432,0.071-0.792l1.764-16.738
			c0.072-0.936,0.108-1.296,0.108-1.764c0-2.124-0.756-3.132-2.664-3.528c3.096-0.684,7.092-1.08,11.303-1.08
			c3.888,0,6.191,0.288,7.451,0.936c1.332,0.684,1.979,1.728,1.979,3.204c0,1.764-0.792,2.664-2.556,2.952
			c-0.611,0.108-1.26,0.144-3.527,0.144c0.468-0.72,0.648-1.332,0.648-2.088c0-0.612-0.217-1.152-0.648-1.476
			c-0.324-0.288-0.972-0.396-2.231-0.396h-3.204l-0.756,6.911h8.388l-0.54,1.224c-0.685,1.548-1.296,1.944-2.88,1.944h-5.291
			L90.258,204.705z"/>
		<path style="fill:#FFFFFF;" d="M110.994,205.317c-0.036,0.468-0.071,1.044-0.071,1.296c0,1.548,0.575,2.268,2.016,2.592
			c-1.332,0.684-2.952,1.044-4.788,1.044c-2.375,0-3.743-0.612-3.743-1.692c0-0.036,0.036-0.36,0.072-0.792l1.871-17.602
			c0.036-0.468,0.072-1.08,0.072-1.368c0-1.62-0.576-2.34-2.159-2.628c2.411-1.26,4.535-1.908,6.371-1.908
			c1.619,0,2.195,0.576,2.195,2.232c0,0.72-0.108,2.556-0.216,3.6L110.994,205.317z"/>
		<path style="fill:#FFFFFF;" d="M134.033,199.881c0,2.628-0.72,5.111-1.944,6.803c-1.691,2.304-4.499,3.456-8.351,3.456
			c-5.688,0-8.459-2.412-8.459-7.343c0-2.664,0.684-5.111,1.943-6.803c1.656-2.268,4.5-3.456,8.352-3.456
			C131.262,192.538,134.033,194.95,134.033,199.881z M122.227,198.477c-0.324,1.224-0.612,3.708-0.612,5.147
			c0,2.52,0.721,3.599,2.412,3.599c1.584,0,2.483-0.9,3.06-3.024c0.324-1.224,0.612-3.708,0.612-5.147c0-2.52-0.721-3.6-2.412-3.6
			C123.666,195.454,122.803,196.354,122.227,198.477z"/>
		<path style="fill:#FFFFFF;" d="M143.97,205.748c1.08-5.651,1.332-6.983,1.656-8.171c0.863-3.528,2.411-5.003,5.291-5.003
			c0.792,0,1.403,0.18,1.655,0.504c0.181,0.216,0.181,0.216,0.324,1.008l2.448,11.302c2.339-2.304,2.375-2.34,3.095-3.204
			c1.116-1.296,1.765-2.592,1.765-3.528c0-0.648-0.324-1.044-0.828-1.044c-0.864,0-1.584,0.972-2.34,3.096
			c-1.728-2.196-2.268-3.204-2.268-4.427c0-2.124,1.871-3.743,4.283-3.743c2.808,0,4.68,2.196,4.68,5.471
			c0,2.772-0.828,4.283-4.104,7.307c-2.448,2.268-3.06,2.952-3.888,4.355h-3.275c-1.692,0-2.231-0.468-2.556-2.124l-1.512-7.667
			c-0.433,1.512-0.504,1.764-0.72,2.916c-0.937,4.823-1.116,5.759-1.225,6.875h-5.399c-1.655,0-2.304-0.54-2.556-2.124l-1.367-8.927
			c-0.612-3.42-0.937-3.852-2.771-4.176c2.52-1.26,4.715-1.908,6.551-1.908c1.403,0,1.943,0.432,2.052,1.548L143.97,205.748z"/>
		<path style="fill:#FFFFFF;" d="M171.546,202.041c-0.072,0.648-0.108,1.116-0.108,1.656c0,2.7,0.612,3.564,2.521,3.564
			c1.691,0,2.771-0.936,2.771-2.412c0-0.432-0.072-0.72-0.324-1.152c3.239,0,3.888,0.072,4.823,0.36
			c0.685,0.252,1.116,0.828,1.116,1.584c0,2.592-3.708,4.5-8.747,4.5c-5.688,0-8.459-2.412-8.459-7.343
			c0-2.627,0.72-5.111,1.943-6.803c1.692-2.304,4.464-3.456,8.315-3.456c5.039,0,7.559,1.872,7.559,5.687
			c0,1.044-0.144,2.412-0.396,3.815L171.546,202.041L171.546,202.041z M176.873,199.521c0.181-0.54,0.288-1.116,0.288-1.8
			c0-1.548-0.684-2.304-2.159-2.304c-1.765,0-2.664,1.188-3.132,4.104H176.873z"/>
		<path style="fill:#FFFFFF;" d="M192.245,204.813c-0.036,0.432-0.072,0.936-0.072,1.296c0,1.8,0.828,2.628,2.988,3.023
			c-1.584,0.72-3.564,1.116-5.76,1.116c-2.412,0-3.924-0.684-3.815-1.692l0.072-0.792l1.008-9.323
			c0.036-0.468,0.071-1.08,0.071-1.332c0-1.62-0.575-2.34-2.159-2.664c2.376-1.26,4.535-1.908,6.371-1.908
			c1.548,0,2.052,0.468,2.195,1.908c1.477-1.296,3.096-1.908,4.896-1.908c2.628,0,4.212,1.368,4.212,3.635
			c0,2.052-0.972,3.384-2.771,3.78c-0.648,0.144-1.908,0.216-3.24,0.216h-0.54c0.504-1.188,0.756-2.304,0.756-3.312
			c0-0.72-0.287-1.116-0.827-1.116c-0.576,0-1.332,0.612-1.944,1.62c-0.54,0.864-0.827,1.8-1.008,3.24L192.245,204.813z"/>
		<path style="fill:#FFFFFF;" d="M214.168,196.858c0-0.864-0.647-1.368-1.8-1.368c-1.403,0-2.52,0.828-2.52,1.836
			c0,0.288,0.108,0.612,0.324,0.756c0.396,0.396,0.396,0.396,3.527,1.368c4.283,1.332,5.759,2.592,5.759,4.895
			c0,3.852-3.239,5.795-9.574,5.795c-5.04,0-8.1-1.404-8.1-3.78c0-1.404,0.937-2.304,2.664-2.592
			c0.684-0.108,1.404-0.108,3.779-0.144c-0.432,0.648-0.647,1.296-0.647,1.944c0,1.08,0.828,1.656,2.411,1.656
			c2.017,0,3.24-0.828,3.24-2.16c0-0.684-0.396-1.044-1.404-1.368c-2.951-0.864-4.68-1.476-5.795-2.088
			c-1.62-0.9-2.376-2.052-2.376-3.672c0-3.419,3.204-5.399,8.675-5.399c4.536,0,7.631,1.404,7.631,3.491
			c0,1.224-0.899,1.98-2.627,2.196c-0.648,0.072-1.656,0.108-3.78,0.108C213.988,197.794,214.168,197.398,214.168,196.858z"/>
	</g>
	<path style="opacity:0.2;fill:#FCFAFA;enable-background:new    ;" d="M357.004,200.597v91h-52.057
		C304.947,291.597,350.627,276.983,357.004,200.597z"/>
</g>
<g>
</g>
<g>
</g>
<g>
</g>
<g>
</g>
<g>
</g>
<g>
</g>
<g>
</g>
<g>
</g>
<g>
</g>
<g>
</g>
<g>
</g>
<g>
</g>
<g>
</g>
<g>
</g>
<g>
</g>
</svg>
