<svg width="42" height="36" viewBox="0 0 42 36" fill="none" xmlns="http://www.w3.org/2000/svg">
<g clip-path="url(#clip0)">
<path d="M32.8125 13.5H31.5V9C31.5 4.0365 26.7907 0 21 0C15.2092 0 10.5 4.0365 10.5 9V13.5H9.1875C7.0175 13.5 5.25 15.0135 5.25 16.875V32.625C5.25 34.4865 7.0175 36 9.1875 36H32.8125C34.9825 36 36.75 34.4865 36.75 32.625V16.875C36.75 15.0135 34.9825 13.5 32.8125 13.5ZM14 9C14 5.691 17.1395 3 21 3C24.8605 3 28 5.691 28 9V13.5H14V9ZM22.75 25.083V28.5C22.75 29.328 21.9677 30 21 30C20.0322 30 19.25 29.328 19.25 28.5V25.083C18.2087 24.5625 17.5 23.6055 17.5 22.5C17.5 20.8455 19.0697 19.5 21 19.5C22.9302 19.5 24.5 20.8455 24.5 22.5C24.5 23.6055 23.7912 24.5625 22.75 25.083Z" fill="#EEEEEE"/>
</g>
<defs>
<clipPath id="clip0">
<rect width="42" height="36" fill="white"/>
</clipPath>
</defs>
</svg>
